# xmcd CD database file generated by OrangeCD 5.2
#
# Track frame offsets:
#	150
#	15531
#	38822
#	63472
#	92962
#	110990
#	128963
#	146351
#	161471
#	178050
#	199655
#	217642
#	234709
#	245994
#	257238
#
# Disc length: 3561 seconds
#
# Revision: 19
# Processed by: cddbd v1.5.1PL2 Copyright (c) Steve Scherf et al.
# Submitted via: OrangeCD 5.2
#
DISCID=dc0de70f
DTITLE=Manny Charlton - Say The Word
DYEAR=2003
DGENRE=Blues
TTITLE0=Say The Word
TTITLE1=Crooked Line
TTITLE2=My Father's Eyes
TTITLE3=Movin' Day
TTITLE4=This Month's Messiah
TTITLE5=Where I Live
TTITLE6=Just A Pretend
TTITLE7=Crushed By The Girl
TTITLE8=The Price
TTITLE9=Boots Of Spanish Leather
TTITLE10=44 Years
TTITLE11=Cactus Rose Cafe
TTITLE12=And Your Religion
TTITLE13=7-10 Blues
TTITLE14=9-11
EXTD=
EXTT0=
EXTT1=
EXTT2=
EXTT3=
EXTT4=
EXTT5=
EXTT6=
EXTT7=
EXTT8=
EXTT9=
EXTT10=
EXTT11=
EXTT12=
EXTT13=
EXTT14=
PLAYORDER=
